HIERARCHY
ROOT mixamorig:Hips
{
	OFFSET 0.00 0.00 0.00
	CHANNELS 6 Xposition Yposition Zposition Zrotation Yrotation Xrotation
	JOINT mixamorig:Spine
	{
		OFFSET	0.0000	9.9235	-1.2273
		CHANNELS 3 Zrotation Yrotation Xrotation
		JOINT mixamorig:Spine1
		{
			OFFSET	-0.0001	11.6455	-1.4224
			CHANNELS 3 Zrotation Yrotation Xrotation
			JOINT mixamorig:Spine2
			{
				OFFSET	0.0001	13.3602	-1.6265
				CHANNELS 3 Zrotation Yrotation Xrotation
				JOINT mixamorig:Neck
				{
					OFFSET	0.0000	15.0325	0.7929
					CHANNELS 3 Zrotation Yrotation Xrotation
					JOINT mixamorig:Head
					{
						OFFSET	-0.0000	10.3218	3.1424
						CHANNELS 3 Zrotation Yrotation Xrotation
						JOINT mixamorig:HeadTop_End
						{
							OFFSET	0.0002	18.4747	6.6364
							CHANNELS 3 Zrotation Yrotation Xrotation
							End Site
							{
								OFFSET 0.0000 0.0000 0.0000
							}
						}
						JOINT mixamorig:LeftEye
						{
							OFFSET	2.9479	7.6817	9.1207
							CHANNELS 3 Zrotation Yrotation Xrotation
							End Site
							{
								OFFSET 0.0000 0.0000 0.0000
							}
						}
						JOINT mixamorig:RightEye
						{
							OFFSET	-2.9445	7.6817	9.1205
							CHANNELS 3 Zrotation Yrotation Xrotation
							End Site
							{
								OFFSET 0.0000 0.0000 0.0000
							}
						}
					}
				}
				JOINT mixamorig:LeftShoulder
				{
					OFFSET	6.1059	9.1104	0.7056
					CHANNELS 3 Zrotation Yrotation Xrotation
					JOINT mixamorig:LeftArm
					{
						OFFSET	12.6532	-0.3431	-2.6009
						CHANNELS 3 Zrotation Yrotation Xrotation
						JOINT mixamorig:LeftForeArm
						{
							OFFSET	27.3517	-0.9645	-1.4034
							CHANNELS 3 Zrotation Yrotation Xrotation
							JOINT mixamorig:LeftHand
							{
								OFFSET	27.5619	-0.7072	1.5500
								CHANNELS 3 Zrotation Yrotation Xrotation
								JOINT mixamorig:LeftHandMiddle1
								{
									OFFSET	12.6630	-1.3962	0.9548
									CHANNELS 3 Zrotation Yrotation Xrotation
									JOINT mixamorig:LeftHandMiddle2
									{
										OFFSET	3.6093	-0.1669	0.0778
										CHANNELS 3 Zrotation Yrotation Xrotation
										JOINT mixamorig:LeftHandMiddle3
										{
											OFFSET	3.4004	-0.6274	0.1148
											CHANNELS 3 Zrotation Yrotation Xrotation
											End Site
											{
												OFFSET 3.6205 -0.6493 0.1199
											}
										}
									}
								}
								JOINT mixamorig:LeftHandThumb1
								{
									OFFSET	3.3268	-2.0474	3.5790
									CHANNELS 3 Zrotation Yrotation Xrotation
									JOINT mixamorig:LeftHandThumb2
									{
										OFFSET	3.4890	-1.4806	2.8548
										CHANNELS 3 Zrotation Yrotation Xrotation
										JOINT mixamorig:LeftHandThumb3
										{
											OFFSET	3.4086	-1.7658	2.1133
											CHANNELS 3 Zrotation Yrotation Xrotation
											End Site
											{
												OFFSET 2.7231 -1.1597 1.7903
											}
										}
									}
								}
								JOINT mixamorig:LeftHandIndex1
								{
									OFFSET	11.9722	-1.1061	3.7324
									CHANNELS 3 Zrotation Yrotation Xrotation
									JOINT mixamorig:LeftHandIndex2
									{
										OFFSET	3.8387	-0.6406	-0.0310
										CHANNELS 3 Zrotation Yrotation Xrotation
										JOINT mixamorig:LeftHandIndex3
										{
											OFFSET	3.3346	-0.7374	-0.0133
											CHANNELS 3 Zrotation Yrotation Xrotation
											End Site
											{
												OFFSET 2.9714 -0.8030 0.0009
											}
										}
									}
								}
								JOINT mixamorig:LeftHandRing1
								{
									OFFSET	12.1659	-1.6805	-1.2769
									CHANNELS 3 Zrotation Yrotation Xrotation
									JOINT mixamorig:LeftHandRing2
									{
										OFFSET	3.5925	-0.2366	-0.0771
										CHANNELS 3 Zrotation Yrotation Xrotation
										JOINT mixamorig:LeftHandRing3
										{
											OFFSET	3.2906	-0.3266	-0.0615
											CHANNELS 3 Zrotation Yrotation Xrotation
											End Site
											{
												OFFSET 3.5423 -0.9211 -0.0200
											}
										}
									}
								}
								JOINT mixamorig:LeftHandPinky1
								{
									OFFSET	11.0508	-2.1872	-3.8040
									CHANNELS 3 Zrotation Yrotation Xrotation
									JOINT mixamorig:LeftHandPinky2
									{
										OFFSET	4.1236	-0.3047	0.1212
										CHANNELS 3 Zrotation Yrotation Xrotation
										JOINT mixamorig:LeftHandPinky3
										{
											OFFSET	2.5805	-0.2597	0.0823
											CHANNELS 3 Zrotation Yrotation Xrotation
											End Site
											{
												OFFSET 2.9027 -0.3379 0.0963
											}
										}
									}
								}
							}
						}
					}
				}
				JOINT mixamorig:RightShoulder
				{
					OFFSET	-6.1057	9.1105	0.7056
					CHANNELS 3 Zrotation Yrotation Xrotation
					JOINT mixamorig:RightArm
					{
						OFFSET	-12.6532	-0.3429	-2.6009
						CHANNELS 3 Zrotation Yrotation Xrotation
						JOINT mixamorig:RightForeArm
						{
							OFFSET	-27.3518	-0.9642	-1.4034
							CHANNELS 3 Zrotation Yrotation Xrotation
							JOINT mixamorig:RightHand
							{
								OFFSET	-27.5619	-0.7068	1.5501
								CHANNELS 3 Zrotation Yrotation Xrotation
								JOINT mixamorig:RightHandMiddle1
								{
									OFFSET	-12.6630	-1.3960	0.9549
									CHANNELS 3 Zrotation Yrotation Xrotation
									JOINT mixamorig:RightHandMiddle2
									{
										OFFSET	-3.6093	-0.1669	0.0778
										CHANNELS 3 Zrotation Yrotation Xrotation
										JOINT mixamorig:RightHandMiddle3
										{
											OFFSET	-3.4004	-0.6273	0.1148
											CHANNELS 3 Zrotation Yrotation Xrotation
											End Site
											{
												OFFSET -3.6205 -0.6492 0.1199
											}
										}
									}
								}
								JOINT mixamorig:RightHandThumb1
								{
									OFFSET	-3.3269	-2.0474	3.5790
									CHANNELS 3 Zrotation Yrotation Xrotation
									JOINT mixamorig:RightHandThumb2
									{
										OFFSET	-3.4890	-1.4805	2.8548
										CHANNELS 3 Zrotation Yrotation Xrotation
										JOINT mixamorig:RightHandThumb3
										{
											OFFSET	-3.4086	-1.7658	2.1133
											CHANNELS 3 Zrotation Yrotation Xrotation
											End Site
											{
												OFFSET -2.7231 -1.1596 1.7903
											}
										}
									}
								}
								JOINT mixamorig:RightHandIndex1
								{
									OFFSET	-11.9722	-1.1059	3.7324
									CHANNELS 3 Zrotation Yrotation Xrotation
									JOINT mixamorig:RightHandIndex2
									{
										OFFSET	-3.8387	-0.6406	-0.0310
										CHANNELS 3 Zrotation Yrotation Xrotation
										JOINT mixamorig:RightHandIndex3
										{
											OFFSET	-3.3346	-0.7373	-0.0133
											CHANNELS 3 Zrotation Yrotation Xrotation
											End Site
											{
												OFFSET -2.9715 -0.8029 0.0009
											}
										}
									}
								}
								JOINT mixamorig:RightHandRing1
								{
									OFFSET	-12.1659	-1.6803	-1.2769
									CHANNELS 3 Zrotation Yrotation Xrotation
									JOINT mixamorig:RightHandRing2
									{
										OFFSET	-3.5925	-0.2366	-0.0771
										CHANNELS 3 Zrotation Yrotation Xrotation
										JOINT mixamorig:RightHandRing3
										{
											OFFSET	-3.2906	-0.3265	-0.0615
											CHANNELS 3 Zrotation Yrotation Xrotation
											End Site
											{
												OFFSET -3.5423 -0.9210 -0.0200
											}
										}
									}
								}
								JOINT mixamorig:RightHandPinky1
								{
									OFFSET	-11.0508	-2.1870	-3.8040
									CHANNELS 3 Zrotation Yrotation Xrotation
									JOINT mixamorig:RightHandPinky2
									{
										OFFSET	-4.1236	-0.3046	0.1212
										CHANNELS 3 Zrotation Yrotation Xrotation
										JOINT mixamorig:RightHandPinky3
										{
											OFFSET	-2.5805	-0.2597	0.0823
											CHANNELS 3 Zrotation Yrotation Xrotation
											End Site
											{
												OFFSET -2.9027 -0.3379 0.0963
											}
										}
									}
								}
							}
						}
					}
				}
			}
		}
	}
	JOINT mixamorig:RightUpLeg
	{
		OFFSET	-9.1245	-6.6564	-0.0554
		CHANNELS 3 Zrotation Yrotation Xrotation
		JOINT mixamorig:RightLeg
		{
			OFFSET	0.0000	-40.5610	-1.7662
			CHANNELS 3 Zrotation Yrotation Xrotation
			JOINT mixamorig:RightFoot
			{
				OFFSET	0.4978	-41.9625	-3.3512
				CHANNELS 3 Zrotation Yrotation Xrotation
				JOINT mixamorig:RightToeBase
				{
					OFFSET	-0.3734	-10.4922	12.6406
					CHANNELS 3 Zrotation Yrotation Xrotation
					End Site
					{
						OFFSET 0.0000 0.0000 9.9925
					}
				}
			}
		}
	}
	JOINT mixamorig:LeftUpLeg
	{
		OFFSET	9.1245	-6.6564	-0.0554
		CHANNELS 3 Zrotation Yrotation Xrotation
		JOINT mixamorig:LeftLeg
		{
			OFFSET	-0.0000	-40.5610	-1.7662
			CHANNELS 3 Zrotation Yrotation Xrotation
			JOINT mixamorig:LeftFoot
			{
				OFFSET	-0.4978	-41.9625	-3.3512
				CHANNELS 3 Zrotation Yrotation Xrotation
				JOINT mixamorig:LeftToeBase
				{
					OFFSET	0.3734	-10.4922	12.6406
					CHANNELS 3 Zrotation Yrotation Xrotation
					End Site
					{
						OFFSET -0.0000 0.0000 9.9925
					}
				}
			}
		}
	}
}
MOTION
Frames: 6
Frame Time: 0.0333333
-0.7560 61.7634 -0.2794 -3.8552 -7.2492 -17.6960 2.3603 1.3886 5.6347 2.4502 -0.3740 10.0998 2.4946 -0.3460 10.0900 -0.6474 0.6283 -4.1361 3.9830 2.3054 -11.7010 0.0000 -0.0000 0.0000 0.0000 -0.0000 0.0000 0.0000 -0.0000 0.0000 -11.0178 0.4917 1.1709 -36.5988 -52.0954 4.4344 3.6098 -74.7637 -5.4259 32.8446 1.9924 4.5372 -87.1094 -1.6570 6.2427 -70.9430 -1.1015 2.6913 -39.6449 -1.2089 1.4981 -27.4483 -18.7358 32.1473 -5.5251 62.3419 19.9714 -8.9433 34.2455 9.4252 -80.4976 -3.9980 5.4562 -75.7546 -2.3194 0.7088 -36.7108 -1.1480 0.0261 -86.2711 -4.2124 5.9539 -76.8278 -3.0187 0.3008 -30.4438 -0.8571 -0.2879 -85.1995 2.6824 6.4680 -77.1861 -2.2346 7.2130 -38.4633 -1.0859 1.5043 11.6480 12.5746 5.8753 10.0147 36.1974 -13.6743 -4.8504 77.5597 -6.7022 -33.7667 -1.2036 -1.9375 86.1877 1.6499 6.1425 58.2508 1.0356 2.0868 33.3080 1.0561 1.2041 33.6990 6.2953 18.2953 2.0304 -66.5608 -0.7284 1.4420 -34.0007 2.3785 79.5558 3.9803 5.3565 63.0725 1.9407 0.3483 30.3755 0.8912 -0.0324 85.3288 4.2048 5.8528 64.1459 2.5139 -0.0702 24.1119 0.5466 -0.2704 84.5727 1.3717 6.0587 64.5376 1.1142 2.6754 32.1271 0.9373 1.2040 0.9828 -6.2011 -70.6411 -0.2705 0.0389 45.8764 12.2697 -5.2663 40.8982 -0.0000 0.0000 -0.0000 3.5837 12.4213 -73.8278 9.2258 -1.9110 94.1515 5.4711 3.8134 -2.9954 0.0000 -0.0000 -0.0879 
-0.7472 61.7639 -0.2711 -3.8758 -7.2627 -17.6895 2.3651 1.3777 5.6221 2.4511 -0.4028 10.0726 2.4953 -0.3749 10.0628 -0.7066 0.6461 -4.2118 3.8712 2.3565 -11.8267 0.0000 -0.0000 0.0000 0.0000 -0.0000 0.0000 0.0000 -0.0000 0.0000 -11.0340 0.5012 1.1706 -36.7449 -51.1631 4.4818 3.5173 -74.5038 -5.3300 33.7128 2.2450 3.5137 -87.1094 -1.6571 6.2427 -70.9430 -1.1015 2.6914 -39.6449 -1.2089 1.4981 -27.4483 -18.7358 32.1473 -5.5251 62.3419 19.9715 -8.9433 34.2455 9.4252 -80.4976 -3.9980 5.4563 -75.7546 -2.3194 0.7088 -36.7108 -1.1480 0.0261 -86.2710 -4.2124 5.9539 -76.8278 -3.0187 0.3008 -30.4438 -0.8571 -0.2879 -85.1995 2.6824 6.4680 -77.1861 -2.2346 7.2130 -38.4633 -1.0859 1.5043 11.6458 12.5729 5.8747 10.1922 36.8141 -13.2484 -4.9390 77.7197 -6.7929 -33.2636 -0.7325 -0.9266 86.1877 1.6498 6.1425 58.2507 1.0356 2.0868 33.3080 1.0561 1.2040 33.6990 6.2953 18.2953 2.0303 -66.5608 -0.7284 1.4420 -34.0007 2.3785 79.5558 3.9803 5.3565 63.0725 1.9407 0.3483 30.3755 0.8912 -0.0325 85.3288 4.2048 5.8529 64.1459 2.5139 -0.0702 24.1118 0.5466 -0.2704 84.5727 1.3717 6.0587 64.5376 1.1142 2.6754 32.1271 0.9374 1.2040 0.9943 -6.1892 -70.6378 -0.2863 0.0253 45.8726 12.2766 -5.2704 40.8959 0.0000 0.0000 -0.0000 3.5897 12.4583 -73.8374 9.2248 -1.9130 94.1676 5.4959 3.7938 -3.0143 0.0000 -0.0000 -0.0883 
-0.7413 61.7691 -0.2620 -3.9074 -7.2638 -17.6474 2.3629 1.3677 5.5938 2.4374 -0.4237 10.0218 2.4807 -0.3961 10.0123 -0.7549 0.6792 -4.2685 3.6813 2.4981 -12.0299 0.0000 -0.0000 0.0000 0.0000 -0.0000 0.0000 0.0000 -0.0000 0.0000 -11.0331 0.4959 1.1703 -36.9855 -50.0845 4.5200 3.4530 -74.3176 -5.2633 34.0614 2.6155 2.7391 -87.1094 -1.6570 6.2427 -70.9430 -1.1015 2.6913 -39.6449 -1.2089 1.4981 -27.4483 -18.7358 32.1473 -5.5251 62.3419 19.9714 -8.9433 34.2455 9.4252 -80.4976 -3.9980 5.4563 -75.7546 -2.3194 0.7088 -36.7108 -1.1480 0.0261 -86.2710 -4.2124 5.9539 -76.8278 -3.0187 0.3008 -30.4438 -0.8571 -0.2880 -85.1995 2.6824 6.4680 -77.1861 -2.2346 7.2130 -38.4633 -1.0859 1.5043 11.6495 12.5849 5.8728 10.5348 37.4333 -12.8006 -5.0210 77.8643 -6.8768 -32.3026 0.0882 0.1289 86.1877 1.6498 6.1425 58.2507 1.0356 2.0868 33.3080 1.0561 1.2041 33.6990 6.2953 18.2953 2.0304 -66.5608 -0.7284 1.4420 -34.0007 2.3785 79.5558 3.9803 5.3565 63.0725 1.9407 0.3483 30.3755 0.8912 -0.0324 85.3288 4.2048 5.8529 64.1459 2.5139 -0.0702 24.1119 0.5466 -0.2704 84.5727 1.3717 6.0587 64.5375 1.1142 2.6754 32.1272 0.9374 1.2040 1.0034 -6.1760 -70.6600 -0.3142 0.0011 45.8621 12.2882 -5.2777 40.8919 0.0000 -0.0000 0.0000 3.5959 12.4829 -73.8805 9.2243 -1.9135 94.1747 5.5202 3.7705 -3.0269 -0.0000 0.0000 -0.0886 
-0.7385 61.7794 -0.2520 -3.9538 -7.2673 -17.5677 2.3726 1.3665 5.5521 2.4350 -0.4179 9.9468 2.4765 -0.3906 9.9376 -0.7993 0.7069 -4.3400 3.5414 2.6093 -12.0887 0.0000 -0.0000 0.0000 0.0000 -0.0000 0.0000 0.0000 -0.0000 0.0000 -11.0518 0.4895 1.1699 -37.2714 -49.0129 4.6498 3.3852 -74.1166 -5.1929 34.4276 3.0697 1.8024 -87.1094 -1.6570 6.2427 -70.9430 -1.1015 2.6914 -39.6449 -1.2089 1.4981 -27.4483 -18.7358 32.1473 -5.5251 62.3419 19.9715 -8.9433 34.2455 9.4252 -80.4976 -3.9980 5.4563 -75.7546 -2.3194 0.7088 -36.7108 -1.1480 0.0261 -86.2710 -4.2124 5.9539 -76.8278 -3.0187 0.3007 -30.4438 -0.8571 -0.2880 -85.1995 2.6824 6.4680 -77.1861 -2.2346 7.2130 -38.4634 -1.0859 1.5043 11.6614 12.5777 5.8666 10.9412 38.0237 -12.2382 -5.1635 78.1073 -7.0225 -31.7043 0.5433 1.2260 86.1877 1.6498 6.1425 58.2507 1.0356 2.0868 33.3080 1.0561 1.2041 33.6990 6.2953 18.2953 2.0304 -66.5607 -0.7284 1.4420 -34.0007 2.3785 79.5558 3.9803 5.3565 63.0725 1.9407 0.3483 30.3755 0.8912 -0.0325 85.3287 4.2048 5.8529 64.1459 2.5139 -0.0702 24.1119 0.5466 -0.2704 84.5727 1.3717 6.0587 64.5375 1.1142 2.6754 32.1272 0.9374 1.2040 1.0197 -6.1432 -70.7060 -0.3518 -0.0317 45.8351 12.3030 -5.2860 40.8877 -0.0000 0.0000 -0.0000 3.6080 12.5231 -73.9580 9.2239 -1.9132 94.1769 5.5499 3.7342 -3.0440 0.0000 -0.0000 -0.0890 
-0.7422 61.7885 -0.2466 -3.9919 -7.2680 -17.5079 2.3869 1.3687 5.5225 2.4502 -0.4060 9.8979 2.4901 -0.3790 9.8890 -0.8698 0.7326 -4.4430 3.4117 2.6890 -12.1200 0.0000 -0.0000 0.0000 0.0000 -0.0000 0.0000 0.0000 -0.0000 0.0000 -11.1373 0.5171 1.1697 -37.4346 -48.0577 4.7556 3.3194 -73.9159 -5.1244 34.7771 3.4574 0.8155 -87.1094 -1.6571 6.2427 -70.9430 -1.1015 2.6914 -39.6449 -1.2089 1.4981 -27.4483 -18.7358 32.1473 -5.5251 62.3419 19.9715 -8.9433 34.2455 9.4252 -80.4976 -3.9980 5.4563 -75.7546 -2.3194 0.7088 -36.7108 -1.1480 0.0261 -86.2711 -4.2124 5.9539 -76.8278 -3.0187 0.3008 -30.4438 -0.8571 -0.2879 -85.1995 2.6824 6.4680 -77.1861 -2.2346 7.2130 -38.4633 -1.0859 1.5043 11.6777 12.5431 5.8567 11.2220 38.6213 -11.7579 -5.3392 78.3937 -7.2019 -30.8477 0.9193 2.3558 86.1877 1.6498 6.1425 58.2507 1.0356 2.0868 33.3080 1.0561 1.2041 33.6990 6.2953 18.2953 2.0304 -66.5608 -0.7284 1.4420 -34.0007 2.3785 79.5558 3.9803 5.3565 63.0725 1.9407 0.3483 30.3755 0.8912 -0.0325 85.3288 4.2048 5.8528 64.1459 2.5139 -0.0702 24.1119 0.5466 -0.2704 84.5727 1.3717 6.0587 64.5376 1.1142 2.6754 32.1272 0.9374 1.2040 1.0271 -6.1037 -70.7357 -0.3918 -0.0667 45.8101 12.3110 -5.2891 40.8859 0.0000 -0.0000 -0.0000 3.6191 12.5737 -74.0170 9.2239 -1.9127 94.1778 5.5781 3.6857 -3.0512 -0.0000 -0.0000 -0.0897 
-0.7459 61.7953 -0.2407 -4.0238 -7.2648 -17.4799 2.4028 1.3737 5.4850 2.4726 -0.4171 9.8311 2.5121 -0.3906 9.8222 -0.9645 0.7611 -4.4417 3.3586 2.7479 -12.1799 0.0000 -0.0000 0.0000 0.0000 -0.0000 0.0000 0.0000 -0.0000 0.0000 -11.2682 0.5491 1.1693 -37.5347 -47.1563 4.8945 3.2526 -73.7071 -5.0548 35.2616 3.7387 -0.0553 -87.1094 -1.6570 6.2427 -70.9431 -1.1015 2.6914 -39.6449 -1.2089 1.4981 -27.4483 -18.7358 32.1473 -5.5251 62.3419 19.9715 -8.9433 34.2455 9.4252 -80.4976 -3.9980 5.4563 -75.7546 -2.3194 0.7088 -36.7108 -1.1480 0.0261 -86.2711 -4.2124 5.9539 -76.8278 -3.0187 0.3008 -30.4438 -0.8571 -0.2880 -85.1995 2.6824 6.4680 -77.1861 -2.2346 7.2130 -38.4634 -1.0859 1.5043 11.6836 12.5275 5.8488 11.4422 39.1786 -11.2611 -5.4364 78.5461 -7.3011 -29.9106 1.2871 3.3541 86.1877 1.6498 6.1425 58.2507 1.0356 2.0868 33.3080 1.0561 1.2041 33.6990 6.2953 18.2953 2.0304 -66.5608 -0.7284 1.4420 -34.0007 2.3785 79.5558 3.9803 5.3565 63.0725 1.9407 0.3483 30.3755 0.8912 -0.0325 85.3288 4.2048 5.8529 64.1459 2.5139 -0.0702 24.1119 0.5466 -0.2704 84.5727 1.3717 6.0587 64.5375 1.1142 2.6754 32.1272 0.9374 1.2040 1.0341 -6.0811 -70.7420 -0.4234 -0.0942 45.8013 12.3051 -5.2831 40.8867 -0.0000 0.0000 -0.0000 3.6342 12.6094 -74.0435 9.2238 -1.9123 94.1790 5.5990 3.6470 -3.0581 -0.0000 0.0000 -0.0907 
